<?xml version="1.0" standalone="no"?><!DOCTYPE svg PUBLIC "-//W3C//DTD SVG 1.1//EN" "http://www.w3.org/Graphics/SVG/1.1/DTD/svg11.dtd"><svg t="1641345119172" class="icon" viewBox="0 0 1024 1024" version="1.1" xmlns="http://www.w3.org/2000/svg" p-id="4557" xmlns:xlink="http://www.w3.org/1999/xlink" width="64" height="64"><defs><style type="text/css"></style></defs><path d="M512 188.4c43.8 0 86.3 8.6 126.3 25.5 38.6 16.3 73.4 39.8 103.2 69.6 29.8 29.8 53.2 64.5 69.6 103.2 16.9 40 25.5 82.5 25.5 126.3S828 599.3 811 639.2c-16.3 38.6-39.8 73.4-69.6 103.2-29.8 29.8-64.5 53.2-103.2 69.6-40 16.9-82.5 25.5-126.3 25.5s-86.3-8.6-126.3-25.5c-38.6-16.3-73.4-39.8-103.2-69.6-29.8-29.8-53.2-64.5-69.6-103.2-16.9-40-25.5-82.5-25.5-126.3s8.6-86.3 25.5-126.3c16.3-38.6 39.8-73.4 69.6-103.2 29.8-29.8 64.5-53.2 103.2-69.6 40-16.9 82.5-25.4 126.4-25.4m0-60c-212.4 0-384.6 172.2-384.6 384.6S299.6 897.5 512 897.5s384.6-172.2 384.6-384.6S724.4 128.4 512 128.4z" fill="#ffffff" p-id="4558"></path><path d="M512 465.4c26.2 0 47.5 21.3 47.5 47.5s-21.3 47.5-47.5 47.5-47.5-21.3-47.5-47.5c-0.1-26.2 21.2-47.5 47.5-47.5m0-30c-42.7 0-77.5 34.8-77.5 77.5 0 42.8 34.8 77.5 77.5 77.5 42.8 0 77.5-34.8 77.5-77.5s-34.8-77.5-77.5-77.5z" fill="#ffffff" p-id="4559"></path><path d="M512 679.2c-91.7 0-166.3-74.6-166.3-166.3S420.3 346.6 512 346.6c91.7 0 166.3 74.6 166.3 166.3S603.7 679.2 512 679.2z m0-302.6c-75.1 0-136.3 61.1-136.3 136.3S436.8 649.2 512 649.2c75.1 0 136.3-61.1 136.3-136.3S587.1 376.6 512 376.6z" fill="#ffffff" p-id="4560"></path><path d="M512 782c-71.9 0-139.5-28-190.3-78.8-50.8-50.8-78.8-118.4-78.8-190.3s28-139.5 78.8-190.3 118.4-78.8 190.3-78.8 139.5 28 190.3 78.8c50.8 50.8 78.8 118.4 78.8 190.3s-28 139.5-78.8 190.3C651.4 754 583.9 782 512 782z m0-508.2c-131.8 0-239.1 107.3-239.1 239.1C272.9 644.8 380.1 752 512 752s239.1-107.3 239.1-239.1S643.8 273.8 512 273.8z" fill="#ffffff" p-id="4561"></path><path d="M447.6 527.1H83c-8.3 0-15-6.7-15-15s6.7-15 15-15h364.6c8.3 0 15 6.7 15 15s-6.7 15-15 15zM941 527.1H576.5c-8.3 0-15-6.7-15-15s6.7-15 15-15H941c8.3 0 15 6.7 15 15s-6.7 15-15 15zM511.4 461.5c-8.3 0-15-6.7-15-15V83.7c0-8.3 6.7-15 15-15s15 6.7 15 15v362.8c0 8.3-6.7 15-15 15zM511.4 955.4c-8.3 0-15-6.7-15-15V577.6c0-8.3 6.7-15 15-15s15 6.7 15 15v362.8c0 8.3-6.7 15-15 15z" fill="#ffffff" p-id="4562"></path></svg>