<?xml version="1.0" standalone="no"?><!DOCTYPE svg PUBLIC "-//W3C//DTD SVG 1.1//EN" "http://www.w3.org/Graphics/SVG/1.1/DTD/svg11.dtd"><svg t="1640676384003" class="icon" viewBox="0 0 1024 1024" version="1.1" xmlns="http://www.w3.org/2000/svg" p-id="5476" xmlns:xlink="http://www.w3.org/1999/xlink" width="64" height="64"><defs><style type="text/css"></style></defs><path d="M782.8 112.2C713.5 42.9 617.7 0 512 0 300.5 0 129 171.5 129 383c0 84 27.1 161.8 73.2 225.3L512 1024l302.6-406.5c50.2-65 80.4-145.9 80.4-234.5 0-105.7-42.9-201.5-112.2-270.8zM512 563.2c-99.3 0-180.2-80.4-180.2-180.2 0-99.8 80.9-179.7 180.2-179.7s180.2 80.4 180.2 180.2S611.3 563.2 512 563.2z" p-id="5477" fill="#d81e06"></path></svg>